<svg width="31" height="30" viewBox="0 0 31 30" fill="none" xmlns="http://www.w3.org/2000/svg">
<g id="instagram">
<path id="Vector" d="M21.75 2.5H9.25C5.79822 2.5 3 5.29822 3 8.75V21.25C3 24.7018 5.79822 27.5 9.25 27.5H21.75C25.2018 27.5 28 24.7018 28 21.25V8.75C28 5.29822 25.2018 2.5 21.75 2.5Z" stroke="#F5F5F5" stroke-width="4" strokeLinecap="round" strokeLinejoin="round"/>
<path id="Vector_2" d="M20.4996 14.2125C20.6539 15.2528 20.4762 16.3153 19.9918 17.2488C19.5075 18.1823 18.7411 18.9393 17.8017 19.4121C16.8623 19.8849 15.7977 20.0495 14.7594 19.8824C13.721 19.7153 12.7618 19.2251 12.0182 18.4815C11.2745 17.7378 10.7843 16.7786 10.6172 15.7403C10.4501 14.702 10.6147 13.6374 11.0875 12.698C11.5604 11.7586 12.3174 10.9922 13.2509 10.5078C14.1844 10.0234 15.2468 9.84575 16.2871 10C17.3483 10.1574 18.3307 10.6518 19.0893 11.4104C19.8478 12.1689 20.3423 13.1514 20.4996 14.2125Z" stroke="#F5F5F5" stroke-width="3" strokeLinecap="round" strokeLinejoin="round"/>
<path id="Vector_3" d="M22.375 8.125H22.3875" stroke="#F5F5F5" stroke-width="3" strokeLinecap="round" strokeLinejoin="round"/>
</g>
</svg>
