<svg width="31" height="30" viewBox="0 0 31 30" fill="none" xmlns="http://www.w3.org/2000/svg">
<g id="basil:telegram-outline">
<path id="Vector" d="M23.8939 24.8538L23.8951 24.8525M23.8939 24.8538L24.6764 4.36001L24.6901 4.35376C24.7969 4.31028 24.9053 4.27108 25.0151 4.23626C25.2114 4.17376 25.5039 4.09626 25.8189 4.07126C26.1126 4.04876 26.5764 4.06126 26.9939 4.33251C27.4801 4.64876 27.6876 5.17251 27.6876 5.72251C27.6878 5.78377 27.6819 5.8449 27.6701 5.90501L23.9451 24.6863M23.8939 24.8538V24.8563M23.8939 24.8538L23.6739 24.6312L23.9451 24.6863M23.8951 24.8525C23.9169 24.7987 23.9336 24.7431 23.9451 24.6863M23.8951 24.8525L23.891 24.8508L23.8495 24.8341L23.8889 24.8538L23.8939 24.8563M23.8951 24.8525L23.6754 24.6328L23.9451 24.6863M3.98749 13.0122L24.859 4.82549L24.8713 4.82066L24.8833 4.81519L24.8877 4.81318C24.9792 4.77617 25.0721 4.74272 25.1662 4.7129L25.1669 4.71269C25.3435 4.65645 25.5955 4.59064 25.8578 4.56975C26.1085 4.55063 26.4396 4.56877 26.7213 4.75166C27.0314 4.95337 27.1876 5.29627 27.1876 5.72251L27.1877 5.72356C27.1877 5.75215 27.185 5.78069 27.1795 5.80876C27.1795 5.80883 27.1795 5.8089 27.1795 5.80897L23.4555 24.5851L23.3939 24.6467V24.7496M3.98749 13.0122L7.90015 17.5638C8.2538 18.3971 8.60547 19.2313 8.95515 20.0663C9.5839 21.5688 10.2176 23.1163 10.3564 23.5613M3.98749 13.0122L3.9802 13.0159L3.95399 13.0255C3.89562 13.047 3.83812 13.0708 3.78162 13.0968L3.77768 13.0986L3.77767 13.0985C3.6386 13.1611 3.50518 13.2355 3.37889 13.3209C3.11553 13.5009 2.69491 13.8773 2.76745 14.4511L2.76754 14.4517C2.82902 14.9436 3.16993 15.2667 3.42113 15.4441L3.42236 15.445C3.55251 15.5375 3.67838 15.6048 3.7732 15.6501L3.78129 15.654L3.78125 15.654C3.7812 15.654 3.78317 15.655 3.78776 15.6571L3.80472 15.6647C3.81874 15.6708 3.83531 15.6779 3.85364 15.6855C3.86376 15.6897 3.87589 15.6948 3.88855 15.7C3.90363 15.7062 3.91946 15.7128 3.93355 15.7187L7.89323 17.0507L3.98749 13.0122ZM23.3939 24.7496C23.2662 25.0088 23.0835 25.2373 22.8582 25.419C22.6534 25.5829 22.3823 25.7251 22.0409 25.7734C21.6986 25.819 21.3167 25.7648 20.8981 25.5837C20.8646 25.5686 20.8344 25.5504 20.8066 25.529L20.8055 25.5281L16.7243 22.4006L16.4494 22.19L16.1556 22.3732L12.6607 24.5523L12.6473 24.5576L12.6041 24.5864C12.5226 24.6408 12.4344 24.6844 12.3417 24.7162C12.1809 24.7695 11.9409 24.8072 11.6832 24.7106L11.6752 24.7076L11.6672 24.7049C11.6227 24.6899 11.5801 24.6698 11.5404 24.6449L11.5402 24.6448C11.46 24.5947 11.3823 24.5229 11.3048 24.4261C11.1573 24.2374 10.9977 23.9288 10.8333 23.4111C10.8332 23.4107 10.8331 23.4104 10.833 23.41L10.3564 23.5613M23.3939 24.7496C23.4019 24.7333 23.4098 24.7169 23.4174 24.7003L23.4221 24.6888L23.4233 24.6856L23.4325 24.6611L23.4356 24.6548L23.3939 24.7496ZM10.3564 23.5613C10.5301 24.1088 10.7126 24.4813 10.9126 24.7363L10.3564 23.5613ZM23.8939 24.8563L23.8914 24.8613L23.8876 24.8713M23.8939 24.8563H23.8814H23.8781H23.851L23.8876 24.8713M23.8876 24.8713L23.8477 24.8563H23.7827L23.8764 24.8988M23.8876 24.8713L23.8764 24.8988M23.8764 24.8988C23.7157 25.253 23.4743 25.5647 23.1714 25.8088M23.8764 24.8988L23.7725 24.8563L23.1714 25.8088M23.1714 25.8088C22.9076 26.02 22.5539 26.2063 22.1089 26.2688L23.1714 25.8088ZM4.26258 13.8435C4.2643 13.8428 4.26602 13.8422 4.26774 13.8415L4.27253 13.8395L4.27254 13.8396L25.1861 5.63485C25.1867 5.63463 25.1872 5.63442 25.1877 5.6342C25.1925 5.63225 25.1973 5.63022 25.2021 5.62811L25.299 5.58501H25.3137C25.4161 5.54736 25.5208 5.51567 25.627 5.49013L26.3863 5.3075L26.2343 6.07353L22.6218 24.2898L22.5741 24.5303L22.4606 24.587C22.4188 24.6371 22.3727 24.6836 22.3227 24.7259M4.26258 13.8435L22.0002 24.3438M4.26258 13.8435L4.24659 13.8483L4.22726 13.8559C4.17548 13.8763 4.1246 13.8989 4.07479 13.9237L3.23782 14.3404L4.04914 14.8051C4.10027 14.8344 4.15304 14.8608 4.20717 14.8841L4.22608 14.8923L4.24559 14.8989L8.17296 16.2213C8.20571 16.2324 8.23704 16.2472 8.26629 16.2657L8.52324 16.4274L8.78526 16.274L21.7423 8.6886L21.7584 8.68051L21.7761 8.66979C21.8138 8.64688 21.8525 8.62565 21.8921 8.60618L21.8921 8.60625L21.8999 8.60223C21.9756 8.56334 22.0906 8.50983 22.2147 8.47166L22.2162 8.47119C22.3136 8.4409 22.5175 8.38659 22.7202 8.45208L22.7236 8.45314C22.8251 8.48513 22.9156 8.54503 22.9847 8.62599C23.0538 8.70695 23.0987 8.80571 23.1143 8.91099L23.1185 8.93939L23.126 8.96713C23.1503 9.05778 23.151 9.15316 23.1281 9.24417C23.0776 9.44242 22.9289 9.62736 22.7245 9.81893C22.5275 10.003 20.0929 12.35 17.7006 14.6589L4.26258 13.8435ZM22.3227 24.7259L22.0002 24.3438M22.3227 24.7259C22.3227 24.7258 22.3228 24.7257 22.3229 24.7257L22.0002 24.3438M22.3227 24.7259C22.2085 24.8223 22.0692 24.8841 21.9211 24.9042L21.9079 24.906L21.8945 24.9071C21.7075 24.9224 21.5196 24.8924 21.3466 24.8198L21.2871 24.7948L21.2359 24.7556L13.8959 19.1281L13.4357 18.7752L13.8524 18.372L14.4337 17.8095L14.4343 17.8089L17.7004 14.659L18.0476 15.0188M22.0002 24.3438C21.9586 24.3789 21.9078 24.4014 21.8539 24.4088C21.7468 24.4175 21.6392 24.4003 21.5401 24.3588L14.6013 19.0388L14.5479 19.0906L14.2001 18.7313L14.5044 18.3345L14.5634 18.3797L14.7814 18.1688L18.0476 15.0188M18.0476 15.0188C20.4464 12.7038 22.8789 10.3588 23.0664 10.1838L18.0476 15.0188ZM15.0958 22.0019L15.7089 21.62L15.1355 21.1806L13.6705 20.0581L13.0031 19.5468L12.8725 20.3773L12.5175 22.6335L12.3475 23.7139L13.2758 23.1357L15.0958 22.0019ZM12.3623 18.5945L12.3623 18.5946L12.37 18.5872L13.8261 17.181L13.8262 17.1809L17.0922 14.0287L17.0924 14.0285L18.3084 12.8562L17.7088 12.0648L9.55879 16.836L9.17858 17.0586L9.35154 17.4638L9.3947 17.5649C9.3948 17.5651 9.3949 17.5654 9.39499 17.5656C9.90829 18.7782 10.4159 19.9933 10.9179 21.2106L11.5973 22.8582L11.8741 21.0977L12.2278 18.8477L12.2281 18.8458C12.2428 18.7499 12.2895 18.6618 12.3623 18.5945Z" fill="#F5F5F5" stroke="#F5F5F5"/>
</g>
</svg>
