<svg width="31" height="30" viewBox="0 0 31 30" fill="none" xmlns="http://www.w3.org/2000/svg">
<g id="ic:baseline-whatsapp">
<path id="Vector" d="M23.6018 6.84106L23.6054 6.84462C25.7549 8.99412 26.9375 11.8521 26.9375 14.9C26.9375 21.1727 21.8227 26.2875 15.55 26.2875C13.6436 26.2875 11.7705 25.8051 10.1034 24.8969L9.75478 24.7069L9.37078 24.8079L4.4822 26.0929L5.77735 21.3378L5.88638 20.9375L5.68003 20.5776C4.69097 18.8525 4.1625 16.8988 4.1625 14.8875C4.1625 8.6148 9.27728 3.50001 15.55 3.50002L15.5535 3.50001C17.0496 3.4948 18.5318 3.78754 19.9136 4.36116C21.2955 4.93478 22.5492 5.7778 23.6018 6.84106ZM9.7855 24.6075L9.78549 24.6075L9.7915 24.6111C11.5318 25.6388 13.5197 26.1875 15.55 26.1875C21.7735 26.1875 26.8503 21.1309 26.825 14.8996C26.83 13.415 26.5405 11.9442 25.9734 10.5723C25.4061 9.19988 24.5722 7.95366 23.52 6.90575C21.3946 4.76771 18.5525 3.58751 15.5375 3.58751C9.31021 3.58751 4.2375 8.66023 4.2375 14.8875L4.2375 14.8882C4.23906 17.0123 4.83765 19.0931 5.96497 20.8933L5.96489 20.8933L5.9722 20.9046L5.98027 20.9171L5.06031 24.2866L4.60414 25.9574L6.27919 25.5172L9.77175 24.5993L9.7855 24.6075ZM20.7673 18.389C20.7843 18.3972 20.8012 18.4052 20.8177 18.413C20.7938 18.5685 20.7487 18.761 20.6722 18.9721L20.6696 18.9793L20.6671 18.9865C20.6673 18.986 20.6672 18.9861 20.6669 18.9869C20.6636 18.9937 20.6374 19.0476 20.5476 19.1401C20.4526 19.238 20.3196 19.3448 20.1592 19.4479C19.8166 19.6682 19.4952 19.7805 19.3828 19.7977C18.9154 19.8626 18.4129 19.8818 17.8815 19.7107L17.8744 19.7084L17.8672 19.7062C17.4385 19.5752 16.9041 19.4008 16.2158 19.0974L16.2158 19.0974L16.2087 19.0943C13.5322 17.9395 11.6887 15.2638 11.3756 14.8094C11.3611 14.7883 11.3498 14.772 11.342 14.7608L11.3337 14.7491L11.325 14.7375L11.3228 14.7345C11.2546 14.6436 10.9834 14.2822 10.729 13.7815C10.4645 13.2608 10.2625 12.6747 10.2625 12.1375C10.2625 11.1218 10.7155 10.6224 11.0104 10.2973C11.0341 10.2711 11.0569 10.246 11.0782 10.2219C11.0974 10.2018 11.1131 10.1894 11.124 10.1819C11.1359 10.1737 11.1451 10.1693 11.1513 10.1669C11.159 10.1637 11.1643 10.1628 11.1659 10.1625H11.5706C11.7934 10.7169 12.2535 11.8426 12.4447 12.2841C12.4411 12.2906 12.4375 12.297 12.4338 12.3034C12.4151 12.3358 12.3972 12.3626 12.3657 12.3992L13.125 13.05L12.3657 12.3992C12.2831 12.4957 12.2173 12.5755 12.1616 12.6432C12.0782 12.7445 12.0172 12.8186 11.9554 12.8804C11.952 12.8838 11.9479 12.8878 11.9432 12.8924C11.8686 12.9659 11.6421 13.189 11.5261 13.5118C11.3705 13.9449 11.4583 14.3669 11.6525 14.7136L11.6598 14.7267L11.6675 14.7395C11.8619 15.0635 12.5388 16.1888 13.5844 17.1213C14.7247 18.1401 15.7591 18.5802 16.167 18.7537C16.2209 18.7766 16.2638 18.7949 16.2946 18.8093C16.5176 18.9231 16.8509 19.0543 17.2417 19.009C17.6819 18.9579 17.9838 18.7122 18.1734 18.4865C18.3104 18.3293 18.6852 17.8854 18.9693 17.5192C19.3046 17.6772 19.8612 17.9483 20.2813 18.153C20.4934 18.2563 20.6707 18.3427 20.7673 18.389ZM12.5205 12.4523C12.5204 12.4523 12.5201 12.4516 12.5195 12.4501C12.5202 12.4516 12.5205 12.4523 12.5205 12.4523Z" fill="#F5F5F5" stroke="#F5F5F5" stroke-width="2"/>
</g>
</svg>
