<svg width="31" height="30" viewBox="0 0 31 30" fill="none" xmlns="http://www.w3.org/2000/svg">
<g id="youtube" clip-path="url(#clip0_312_1553)">
<path id="Vector" d="M28.6747 8.025C28.5263 7.43176 28.2238 6.88821 27.7981 6.44926C27.3723 6.0103 26.8382 5.69148 26.2497 5.525C24.0997 5 15.4997 5 15.4997 5C15.4997 5 6.89974 5 4.74974 5.575C4.1613 5.74148 3.62721 6.0603 3.20142 6.49926C2.77563 6.93821 2.47322 7.48176 2.32474 8.075C1.93126 10.2569 1.73878 12.4704 1.74974 14.6875C1.73571 16.9213 1.9282 19.1516 2.32474 21.35C2.48844 21.9248 2.79762 22.4477 3.22242 22.8681C3.64721 23.2885 4.17326 23.5923 4.74974 23.75C6.89974 24.325 15.4997 24.325 15.4997 24.325C15.4997 24.325 24.0997 24.325 26.2497 23.75C26.8382 23.5835 27.3723 23.2647 27.7981 22.8257C28.2238 22.3868 28.5263 21.8432 28.6747 21.25C29.0652 19.0845 29.2576 16.8879 29.2497 14.6875C29.2638 12.4537 29.0713 10.2234 28.6747 8.025Z" stroke="#F5F5F5" stroke-width="4" stroke-linecap="round" stroke-linejoin="round"/>
<path id="Vector_2" d="M12.6875 18.775L19.875 14.6875L12.6875 10.6V18.775Z" stroke="#F5F5F5" stroke-width="2" stroke-linecap="round" stroke-linejoin="round"/>
</g>
<defs>
<clipPath id="clip0_312_1553">
<rect width="30" height="30" fill="white" transform="translate(0.5)"/>
</clipPath>
</defs>
</svg>
