<svg width="50" height="40" viewBox="0 0 50 40" fill="none" xmlns="http://www.w3.org/2000/svg">
<rect x="0.25" y="0.25" width="49.5" height="39.5" rx="9.75" fill="#F93822" stroke="white" stroke-width="0.5"/>
<path d="M38.875 20H20.3425M13.801 20H11.125M13.801 20C13.801 19.1327 14.1455 18.301 14.7588 17.6877C15.372 17.0745 16.2037 16.73 17.071 16.73C17.9383 16.73 18.77 17.0745 19.3832 17.6877C19.9965 18.301 20.341 19.1327 20.341 20C20.341 20.8672 19.9965 21.699 19.3832 22.3122C18.77 22.9254 17.9383 23.27 17.071 23.27C16.2037 23.27 15.372 22.9254 14.7588 22.3122C14.1455 21.699 13.801 20.8672 13.801 20ZM38.875 29.9105H30.253M30.253 29.9105C30.253 30.7779 29.9077 31.6106 29.2943 32.224C28.6809 32.8374 27.849 33.182 26.9815 33.182C26.1142 33.182 25.2825 32.8359 24.6693 32.2227C24.056 31.6095 23.7115 30.7777 23.7115 29.9105M30.253 29.9105C30.253 29.043 29.9077 28.2118 29.2943 27.5984C28.6809 26.9851 27.849 26.6405 26.9815 26.6405C26.1142 26.6405 25.2825 26.985 24.6693 27.5982C24.056 28.2115 23.7115 29.0432 23.7115 29.9105M23.7115 29.9105H11.125M38.875 10.0895H34.2175M27.676 10.0895H11.125M27.676 10.0895C27.676 9.2222 28.0205 8.39046 28.6338 7.77722C29.247 7.16397 30.0787 6.81946 30.946 6.81946C31.3754 6.81946 31.8006 6.90404 32.1974 7.06837C32.5941 7.2327 32.9546 7.47357 33.2582 7.77722C33.5619 8.08087 33.8028 8.44135 33.9671 8.83808C34.1314 9.23482 34.216 9.66004 34.216 10.0895C34.216 10.5189 34.1314 10.9441 33.9671 11.3408C33.8028 11.7376 33.5619 12.098 33.2582 12.4017C32.9546 12.7053 32.5941 12.9462 32.1974 13.1105C31.8006 13.2749 31.3754 13.3595 30.946 13.3595C30.0787 13.3595 29.247 13.0149 28.6338 12.4017C28.0205 11.7885 27.676 10.9567 27.676 10.0895Z" stroke="#D9D9D9" stroke-width="2" stroke-miterlimit="10" stroke-linecap="round"/>
</svg>
