<svg xmlns="http://www.w3.org/2000/svg" width="30" height="30" viewBox="0 0 30 30" fill="none">
  <path d="M22.0503 22.0493C22.0503 22.3712 21.9224 22.68 21.6948 22.9076C21.4671 23.1353 21.1583 23.2632 20.8364 23.2632L8.69752 23.2632C8.37557 23.2632 8.06681 23.1353 7.83917 22.9076C7.61152 22.68 7.48363 22.3712 7.48363 22.0493C7.48363 21.7274 7.61152 21.4186 7.83917 21.1909C8.06681 20.9633 8.37557 20.8354 8.69752 20.8354H20.8364C21.1583 20.8354 21.4671 20.9633 21.6948 21.1909C21.9224 21.4186 22.0503 21.7274 22.0503 22.0493ZM22.0503 17.1937C22.0503 17.5157 21.9224 17.8244 21.6948 18.0521C21.4671 18.2797 21.1583 18.4076 20.8364 18.4076H8.69752C8.37557 18.4076 8.06681 18.2797 7.83917 18.0521C7.61152 17.8244 7.48363 17.5157 7.48363 17.1937C7.48363 16.8718 7.61152 16.563 7.83917 16.3354C8.06681 16.1077 8.37557 15.9799 8.69752 15.9799L20.8364 15.9799C21.1583 15.9799 21.4671 16.1077 21.6948 16.3354C21.9224 16.563 22.0503 16.8718 22.0503 17.1937ZM20.8364 13.5521C21.1583 13.5521 21.4671 13.4242 21.6948 13.1965C21.9224 12.9689 22.0503 12.6601 22.0503 12.3382C22.0503 12.0162 21.9224 11.7075 21.6948 11.4798C21.4671 11.2522 21.1583 11.1243 20.8364 11.1243L8.69752 11.1243C8.37557 11.1243 8.06681 11.2522 7.83917 11.4798C7.61152 11.7075 7.48363 12.0162 7.48363 12.3382C7.48363 12.6601 7.61152 12.9689 7.83917 13.1965C8.06681 13.4242 8.37557 13.5521 8.69752 13.5521L20.8364 13.5521ZM22.0503 7.48263C22.0503 7.80457 21.9224 8.11333 21.6948 8.34098C21.4671 8.56863 21.1583 8.69652 20.8364 8.69652H15.9808C15.6589 8.69652 15.3501 8.56863 15.1225 8.34098C14.8949 8.11333 14.767 7.80457 14.767 7.48263C14.767 7.16068 14.8949 6.85193 15.1225 6.62428C15.3501 6.39663 15.6589 6.26874 15.9808 6.26874H20.8364C21.1583 6.26874 21.4671 6.39663 21.6948 6.62428C21.9224 6.85193 22.0503 7.16068 22.0503 7.48263Z" fill="#F5F5F5"/>
  <path fillRule="evenodd" clipRule="evenodd" d="M26.9058 24.477C26.9058 25.4428 26.5221 26.3691 25.8391 27.052C25.1562 27.735 24.2299 28.1187 23.2641 28.1187L6.26965 28.1187C5.30382 28.1187 4.37755 27.735 3.6946 27.052C3.01166 26.3691 2.62799 25.4428 2.62798 24.477L2.62798 5.05476C2.62799 4.08893 3.01166 3.16266 3.6946 2.47971C4.37755 1.79677 5.30382 1.41309 6.26965 1.41309L23.2641 1.41309C24.2299 1.41309 25.1562 1.79677 25.8391 2.47971C26.5221 3.16266 26.9058 4.08893 26.9058 5.05476L26.9058 24.477ZM23.2641 25.6909L6.26965 25.6909C5.94771 25.6909 5.63895 25.563 5.4113 25.3353C5.18365 25.1077 5.05576 24.7989 5.05576 24.477L5.05576 5.05476C5.05576 4.73282 5.18365 4.42406 5.4113 4.19641C5.63895 3.96876 5.94771 3.84087 6.26965 3.84087L23.2641 3.84087C23.586 3.84087 23.8948 3.96876 24.1224 4.19641C24.3501 4.42406 24.478 4.73282 24.478 5.05476L24.478 24.477C24.478 24.7989 24.3501 25.1077 24.1224 25.3353C23.8948 25.563 23.586 25.6909 23.2641 25.6909Z" fill="#F5F5F5"/>
</svg>