<svg width="203" height="100" viewBox="0 0 203 100" fill="none" xmlns="http://www.w3.org/2000/svg">
<g id="Logo">
<g id="Group 87">
<g id="Group 86">
<g id="Group 84">
<path id="Vector" d="M33.5 58.0322C29.0733 58.0322 25.4849 54.2123 25.4849 49.5C25.4849 44.7877 29.0733 40.9678 33.5 40.9678C37.9267 40.9678 41.5151 44.7877 41.5151 49.5C41.5151 54.2123 37.9267 58.0322 33.5 58.0322ZM33.5 33C24.9393 33 18 40.387 18 49.5C18 58.613 24.9393 66 33.5 66C42.0607 66 49 58.613 49 49.5C49 40.387 42.0607 33 33.5 33Z" fill="#E2DED3"/>
<path id="Vector_2" d="M47.7717 62.0762L45.1947 64.7329C44.9069 65.0296 44.4471 65.0487 44.1369 64.7768L34.4107 56.2232C33.8914 55.7664 33.8601 54.9499 34.3424 54.4526L37.802 50.8849C38.2851 50.3867 39.0768 50.4191 39.5197 50.9554L47.8135 60.9853C48.0772 61.3045 48.0595 61.7794 47.7717 62.0762Z" fill="#E2DED3"/>
</g>
<path id="Vector_3" d="M55.5165 46H56.4826C58.4248 46 60 47.5676 60 49.5005C60 51.4333 58.4248 53 56.4826 53H55.5165C53.5743 53 52 51.4333 52 49.5005C52 47.5676 53.5743 46 55.5165 46Z" fill="#F93822"/>
<path id="Vector_4" d="M117.167 33C117.627 33 118 33.366 118 33.818V53.1412C118 55.4762 117.413 57.6273 116.239 59.5929C115.065 61.5603 113.469 63.1186 111.45 64.2713C109.43 65.4232 107.231 66 104.852 66H104.101C101.257 66 98.6821 65.177 96.3754 63.5309C95.2835 62.7518 94.3179 61.8048 93.5232 60.7339C91.8419 58.468 91 55.9366 91 53.1412V33.818C91 33.366 91.3737 33 91.8342 33H98.0086C98.4691 33 98.8419 33.366 98.8419 33.818V51.297C98.8419 53.2027 99.311 54.7847 100.251 56.0445C101.19 57.3043 102.473 57.9342 104.101 57.9342H104.852C106.418 57.9342 107.693 57.2967 108.679 56.0209C109.666 54.7467 110.159 53.1715 110.159 51.297V33.818C110.159 33.366 110.532 33 110.992 33H117.167Z" fill="#F93822"/>
<path id="Vector_5" d="M135.866 43.5243C135.548 43.5243 135.288 43.2657 135.288 42.9459V42.9442C135.288 42.0826 134.924 41.3467 134.197 40.7372C133.468 40.1277 132.585 39.8226 131.545 39.8226C130.475 39.8226 129.561 40.1277 128.803 40.7372C128.045 41.3467 127.667 42.0826 127.667 42.9442C127.667 43.8074 128.052 44.4463 128.825 44.8624C129.568 45.3683 130.578 45.7836 131.856 46.1107C132.064 46.1409 132.294 46.185 132.547 46.2445C132.8 46.3049 133.06 46.3637 133.328 46.4232C136.507 47.1959 138.632 48.073 139.702 49.0537L140.103 49.4111C140.995 50.2735 141.7 51.2991 142.22 52.4878C142.74 53.6774 143 54.867 143 56.0558C143 57.393 142.71 58.6716 142.131 59.8905C141.552 61.1095 140.712 62.1946 139.612 63.146C138.513 64.0679 137.264 64.7737 135.868 65.2641C134.471 65.7544 133.015 66 131.5 66C129.985 66 128.535 65.7544 127.154 65.2641C125.772 64.7737 124.531 64.0679 123.432 63.146C122.332 62.1946 121.485 61.1095 120.891 59.8905C120.297 58.6716 120 57.393 120 56.0558V56.0533C120 55.7343 120.259 55.4757 120.577 55.4757H127.222C127.541 55.4757 127.8 55.7343 127.8 56.0533V56.0558C127.8 56.9182 128.164 57.6541 128.893 58.2628C129.62 58.8723 130.489 59.1766 131.5 59.1766C132.57 59.1766 133.483 58.8723 134.242 58.2628C134.999 57.6541 135.378 56.9182 135.378 56.0558C135.378 55.3721 134.977 54.7177 134.174 54.0935C133.818 53.8259 133.401 53.6024 132.926 53.4245C132.451 53.2458 131.871 53.0671 131.188 52.8893L129.717 52.5327C128.083 52.1166 126.804 51.7445 125.883 51.4174C124.962 51.091 124.115 50.5851 123.343 49.9014L123.164 49.7227C122.154 48.8016 121.374 47.7605 120.825 46.6011C120.274 45.4417 120 44.2236 120 42.9442C120 41.607 120.297 40.3284 120.891 39.1095C121.485 37.8905 122.332 36.8054 123.432 35.854C124.531 34.9329 125.772 34.2263 127.154 33.7359C128.535 33.2456 129.985 33 131.5 33C133.015 33 134.471 33.2456 135.868 33.7359C137.264 34.2263 138.513 34.9329 139.612 35.854C140.712 36.8054 141.552 37.8905 142.131 39.1095C142.71 40.3284 143 41.607 143 42.9442V42.9459C143 43.2657 142.741 43.5243 142.423 43.5243H135.866Z" fill="#F93822"/>
<path id="Vector_6" d="M163.783 33H170.211C170.646 33 171 33.3594 171 33.8033V64.1967C171 64.6406 170.646 65 170.211 65H163.783C163.346 65 162.993 64.6406 162.993 64.1967V53.8544C162.993 53.4105 162.64 53.0511 162.204 53.0511H154.796C154.36 53.0511 154.007 53.4105 154.007 53.8544V64.1967C154.007 64.6406 153.654 65 153.218 65H146.789C146.354 65 146 64.6406 146 64.1967V33.8033C146 33.3594 146.354 33 146.789 33H153.218C153.654 33 154.007 33.3594 154.007 33.8033V44.1C154.007 44.5439 154.36 44.9033 154.796 44.9033H162.204C162.64 44.9033 162.993 44.5439 162.993 44.1V33.8033C162.993 33.3594 163.346 33 163.783 33Z" fill="#F93822"/>
<path id="Vector_7" d="M84.7008 51.3311C86.156 50.3962 87.3124 49.1963 88.1673 47.733C89.0204 46.2714 89.4479 44.6814 89.4488 42.9639C89.4496 41.2132 88.9657 39.4883 88.0448 37.9737C87.083 36.3911 85.7616 35.1523 84.0796 34.2562C82.4749 33.4008 80.6461 33 78.8077 33H63.8427C63.3771 33 63 33.3594 63 33.8033V38.7695C63 39.2133 63.3779 39.5736 63.8436 39.5736L78.7174 39.5628C79.6027 39.6241 80.3472 39.9777 80.9493 40.6269C81.5497 41.2762 81.8511 42.0372 81.8511 42.9125C81.8511 43.8177 81.5497 44.5944 80.9493 45.2437C80.3472 45.8929 79.6027 46.2614 78.7174 46.3525L63.8427 46.3542C63.3771 46.3542 63 46.7144 63 47.1583V64.1967C63 64.6406 63.3771 65 63.8427 65H70.1815C70.6471 65 71.0251 64.6406 71.0251 64.1967V53.7186C71.0251 53.2747 71.4021 52.9153 71.8678 52.9153H75.9251C76.2648 52.9153 76.5706 53.1091 76.7027 53.4081L81.587 64.5073C81.7182 64.8054 82.0249 65 82.3646 65H89.156C89.752 65 90.1594 64.4278 89.9396 63.8994L84.7008 51.3311Z" fill="#F93822"/>
</g>
<g id="Group 85">
<path id="Vector_8" d="M177 63.491C177 62.512 177.715 62.009 178.967 62.009H179.213V62.9603H178.888C178.33 62.9603 178.117 63.1432 178.117 63.4633C178.117 63.7834 178.33 63.9663 178.888 63.9663C180.498 63.9663 180.799 62 183.033 62C184.285 62 185 62.512 185 63.5C185 64.488 184.285 65 183.033 65H182.553V64.0487H183.112C183.671 64.0487 183.872 63.8478 183.872 63.5277C183.872 63.207 183.671 63.006 183.112 63.006C181.503 63.006 181.201 64.9729 178.967 64.9729C177.715 64.9729 177 64.4699 177 63.491Z" fill="#E2DED3"/>
<path id="Vector_9" d="M177 60V56H178.143V57.3535H185V58.6473H178.143V60H177Z" fill="#E2DED3"/>
<path id="Vector_10" d="M177 52.6581H183.093C183.657 52.6581 183.86 52.3902 183.86 51.9635C183.86 51.5368 183.657 51.2689 183.093 51.2689H177V50H183.014C184.278 50 185 50.6834 185 52.0004C185 53.3166 184.278 54 183.014 54H177V52.6581Z" fill="#E2DED3"/>
<path id="Vector_11" d="M178.143 46.6986H183.857V45.9646C183.857 45.5505 183.651 45.3022 183.079 45.3022H178.92C178.349 45.3022 178.143 45.5505 178.143 45.9646V46.6986ZM177 48V45.9413C177 44.639 177.697 44 178.977 44H183.022C184.302 44 185 44.639 185 45.9413V48H177Z" fill="#E2DED3"/>
<path id="Vector_12" d="M177 40H185V41H177V40Z" fill="#E2DED3"/>
<path id="Vector_13" d="M183.112 36.6827C183.67 36.6827 183.883 36.4196 183.883 35.9996C183.883 35.5804 183.67 35.3173 183.112 35.3173H178.888C178.33 35.3173 178.117 35.5804 178.117 35.9996C178.117 36.4196 178.33 36.6827 178.888 36.6827H183.112ZM178.967 38C177.715 38 177 37.2933 177 35.9996C177 34.7059 177.715 34 178.967 34H183.033C184.285 34 185 34.7059 185 35.9996C185 37.2933 184.285 38 183.033 38H178.967Z" fill="#E2DED3"/>
</g>
</g>
</g>
</svg>
