<svg xmlns="http://www.w3.org/2000/svg" width="30" height="30" viewBox="0 0 30 30" fill="none">
  <path fill-rule="evenodd" clip-rule="evenodd" d="M7.23515 17.525C7.28886 17.5429 7.34409 17.5559 7.40015 17.5637C7.7538 18.3971 8.10547 19.2312 8.45515 20.0662C9.0839 21.5687 9.71765 23.1162 9.8564 23.5612C10.0301 24.1087 10.2126 24.4812 10.4126 24.7362C10.5164 24.8662 10.6351 24.9812 10.7751 25.0687C10.8481 25.1144 10.9261 25.1513 11.0076 25.1787C11.4076 25.3287 11.7726 25.2662 12.0014 25.19C12.1356 25.1442 12.2634 25.0811 12.3814 25.0025L12.3876 25L15.9201 22.7975L20.0014 25.925C20.0614 25.9712 20.1264 26.01 20.1964 26.0412C20.6864 26.2537 21.1614 26.3287 21.6089 26.2687C22.0539 26.2062 22.4076 26.02 22.6714 25.8087C22.9743 25.5646 23.2157 25.253 23.3764 24.8987L23.3876 24.8712L23.3914 24.8612L23.3939 24.8562V24.8537L23.3951 24.8525C23.4169 24.7987 23.4336 24.7431 23.4452 24.6862L27.1701 5.90498C27.1819 5.84486 27.1878 5.78374 27.1876 5.72248C27.1876 5.17248 26.9801 4.64873 26.4939 4.33248C26.0764 4.06123 25.6126 4.04873 25.3189 4.07123C25.0039 4.09623 24.7114 4.17373 24.5151 4.23623C24.4053 4.27105 24.2969 4.31025 24.1901 4.35373L24.1764 4.35998L3.2839 12.555L3.2814 12.5562C3.21071 12.5822 3.14107 12.611 3.07265 12.6425C2.90698 12.717 2.74805 12.8056 2.59765 12.9075C2.3139 13.1012 1.66015 13.6337 1.7714 14.5137C1.8589 15.2137 2.3389 15.645 2.63265 15.8525C2.79265 15.9662 2.94515 16.0475 3.05765 16.1012C3.10765 16.1262 3.21515 16.1687 3.2614 16.1887L3.2739 16.1925L7.23515 17.525ZM24.9076 6.08498H24.9051C24.8944 6.08976 24.8836 6.09434 24.8727 6.09873L3.95515 14.305C3.94439 14.3093 3.93355 14.3135 3.92265 14.3175L3.91015 14.3212C3.87194 14.3362 3.8344 14.3529 3.79765 14.3712C3.83244 14.3912 3.86833 14.4091 3.90515 14.425L7.83265 15.7475C7.90283 15.7711 7.96997 15.803 8.03265 15.8425L21.0039 8.24873L21.0164 8.24248C21.0668 8.21186 21.1185 8.1835 21.1714 8.15748C21.2614 8.11123 21.4051 8.04373 21.5676 7.99373C21.6801 7.95873 22.0139 7.85998 22.3739 7.97623C22.5648 8.03642 22.735 8.14909 22.865 8.30138C22.995 8.45368 23.0795 8.63945 23.1089 8.83748C23.1555 9.01092 23.1567 9.1934 23.1126 9.36748C23.0251 9.71123 22.7851 9.97873 22.5664 10.1837C22.3789 10.3587 19.9464 12.7037 17.5476 15.0187L14.2814 18.1687L13.7001 18.7312L21.0401 24.3587C21.1392 24.4003 21.2468 24.4175 21.3539 24.4087C21.4078 24.4014 21.4586 24.3789 21.5002 24.3437C21.5508 24.301 21.5943 24.2503 21.6289 24.1937L21.6314 24.1925L25.2439 5.97623C25.1301 6.00361 25.0185 6.03954 24.9101 6.08373L24.9076 6.08498ZM14.3314 21.5775L12.8664 20.455L12.5114 22.7112L14.3314 21.5775ZM11.5226 18.2275L12.9789 16.8212L16.2451 13.6687L17.4614 12.4962L9.3114 17.2675L9.35515 17.37C9.86915 18.5843 10.3775 19.801 10.8801 21.02L11.2339 18.77C11.2659 18.5613 11.3677 18.3709 11.5226 18.2275Z" fill="#F5F5F5"/>
</svg>