<svg width="96" height="238" viewBox="0 0 96 238" fill="none" xmlns="http://www.w3.org/2000/svg">
<g clip-path="url(#clip0_0_1269)">
<path d="M47.4999 188.667C48.605 188.667 49.6648 188.228 50.4462 187.446C51.2276 186.665 51.6666 185.605 51.6666 184.5C51.6666 183.395 51.2276 182.335 50.4462 181.554C49.6648 180.772 48.605 180.333 47.4999 180.333C46.3948 180.333 45.335 180.772 44.5536 181.554C43.7722 182.335 43.3333 183.395 43.3333 184.5C43.3333 185.605 43.7722 186.665 44.5536 187.446C45.335 188.228 46.3948 188.667 47.4999 188.667Z" stroke="#DE643D" stroke-linecap="round" stroke-linejoin="round"/>
<path d="M38.125 188.667V180.333C38.125 178.952 38.6737 177.627 39.6505 176.65C40.6272 175.674 41.952 175.125 43.3333 175.125H51.6667C53.048 175.125 54.3728 175.674 55.3495 176.65C56.3263 177.627 56.875 178.952 56.875 180.333V188.667C56.875 190.048 56.3263 191.373 55.3495 192.35C54.3728 193.326 53.048 193.875 51.6667 193.875H43.3333C41.952 193.875 40.6272 193.326 39.6505 192.35C38.6737 191.373 38.125 190.048 38.125 188.667Z" stroke="#DE643D"/>
<path d="M53.2292 178.781L53.2392 178.77" stroke="#DE643D" stroke-linecap="round" stroke-linejoin="round"/>
</g>
<circle cx="48" cy="194.5" r="21.8177" stroke="white" stroke-width="0.739583"/>
<rect x="25" y="172" width="46" height="46" rx="23" fill="#DE643D"/>
<path d="M39.95 186.951C39.95 186.629 40.0778 186.32 40.3055 186.092C40.5331 185.865 40.8419 185.737 41.1638 185.737H53.3027C53.6247 185.737 53.9334 185.865 54.1611 186.092C54.3887 186.32 54.5166 186.629 54.5166 186.951C54.5166 187.273 54.3887 187.581 54.1611 187.809C53.9334 188.037 53.6247 188.165 53.3027 188.165H41.1638C40.8419 188.165 40.5331 188.037 40.3055 187.809C40.0778 187.581 39.95 187.273 39.95 186.951ZM39.95 191.806C39.95 191.484 40.0778 191.176 40.3055 190.948C40.5331 190.72 40.8419 190.592 41.1638 190.592H53.3027C53.6247 190.592 53.9334 190.72 54.1611 190.948C54.3887 191.176 54.5166 191.484 54.5166 191.806C54.5166 192.128 54.3887 192.437 54.1611 192.665C53.9334 192.892 53.6247 193.02 53.3027 193.02H41.1638C40.8419 193.02 40.5331 192.892 40.3055 192.665C40.0778 192.437 39.95 192.128 39.95 191.806ZM41.1638 195.448C40.8419 195.448 40.5331 195.576 40.3055 195.803C40.0778 196.031 39.95 196.34 39.95 196.662C39.95 196.984 40.0778 197.293 40.3055 197.52C40.5331 197.748 40.8419 197.876 41.1638 197.876H53.3027C53.6247 197.876 53.9334 197.748 54.1611 197.52C54.3887 197.293 54.5166 196.984 54.5166 196.662C54.5166 196.34 54.3887 196.031 54.1611 195.803C53.9334 195.576 53.6247 195.448 53.3027 195.448H41.1638ZM39.95 201.517C39.95 201.195 40.0778 200.887 40.3055 200.659C40.5331 200.431 40.8419 200.303 41.1638 200.303H46.0194C46.3413 200.303 46.6501 200.431 46.8777 200.659C47.1054 200.887 47.2333 201.195 47.2333 201.517C47.2333 201.839 47.1054 202.148 46.8777 202.376C46.6501 202.603 46.3413 202.731 46.0194 202.731H41.1638C40.8419 202.731 40.5331 202.603 40.3055 202.376C40.0778 202.148 39.95 201.839 39.95 201.517Z" fill="#1E1E1E"/>
<path fill-rule="evenodd" clip-rule="evenodd" d="M35.0947 184.523C35.0947 183.557 35.4784 182.631 36.1613 181.948C36.8443 181.265 37.7706 180.881 38.7364 180.881H55.7308C56.6967 180.881 57.6229 181.265 58.3059 181.948C58.9888 182.631 59.3725 183.557 59.3725 184.523V203.945C59.3725 204.911 58.9888 205.837 58.3059 206.52C57.6229 207.203 56.6967 207.587 55.7308 207.587H38.7364C37.7706 207.587 36.8443 207.203 36.1613 206.52C35.4784 205.837 35.0947 204.911 35.0947 203.945V184.523ZM38.7364 183.309H55.7308C56.0528 183.309 56.3615 183.437 56.5892 183.665C56.8168 183.892 56.9447 184.201 56.9447 184.523V203.945C56.9447 204.267 56.8168 204.576 56.5892 204.804C56.3615 205.031 56.0528 205.159 55.7308 205.159H38.7364C38.4144 205.159 38.1057 205.031 37.878 204.804C37.6504 204.576 37.5225 204.267 37.5225 203.945V184.523C37.5225 184.201 37.6504 183.892 37.878 183.665C38.1057 183.437 38.4144 183.309 38.7364 183.309Z" fill="#1E1E1E"/>
<defs>
<clipPath id="clip0_0_1269">
<rect width="50" height="182" fill="white" transform="translate(23)"/>
</clipPath>
</defs>
</svg>
